HIERARCHY
ROOT Hips
{
  OFFSET -25.4992 47.4658 0.522821
  CHANNELS 6 Xposition Yposition Zposition Zrotation Xrotation Yrotation
  JOINT Bip01_Pelvis
  {
    OFFSET 0 0 0
    CHANNELS 6 Xposition Yposition Zposition Zrotation Xrotation Yrotation
    JOINT Bip01_Spine
    {
      OFFSET 7.92815 1.03427 -0.957866
      CHANNELS 6 Xposition Yposition Zposition Zrotation Xrotation Yrotation
      JOINT Bip01_Spine1
      {
        OFFSET 14.2482 -0.00839019 0.000894789
        CHANNELS 6 Xposition Yposition Zposition Zrotation Xrotation Yrotation
        JOINT Bip01_Neck
        {
          OFFSET 16.1384 -3.98645 0.000135839
          CHANNELS 6 Xposition Yposition Zposition Zrotation Xrotation Yrotation
          JOINT Bip01_Neck1
          {
            OFFSET 9.69266 -0.00491233 0
            CHANNELS 6 Xposition Yposition Zposition Zrotation Xrotation Yrotation
            JOINT Bip01_Head
            {
              OFFSET 6.2355 0 0
              CHANNELS 6 Xposition Yposition Zposition Zrotation Xrotation Yrotation
              JOINT BN_Mouth_01
              {
                OFFSET 4.58056 2.14338 0
                CHANNELS 6 Xposition Yposition Zposition Zrotation Xrotation Yrotation
                End Site
                {
                  OFFSET 0 0 0
                }
              }
            }
          }
          JOINT Bip01_L_Clavicle
          {
            OFFSET -0.933029 -3.98291 -6.88005
            CHANNELS 6 Xposition Yposition Zposition Zrotation Xrotation Yrotation
            JOINT Bip01_L_UpperArm
            {
              OFFSET 15.6802 0 0
              CHANNELS 6 Xposition Yposition Zposition Zrotation Xrotation Yrotation
              JOINT Bip01_L_Forearm
              {
                OFFSET 15.3149 0 0
                CHANNELS 6 Xposition Yposition Zposition Zrotation Xrotation Yrotation
                JOINT Bip01_L_Hand
                {
                  OFFSET 16.178 0 0
                  CHANNELS 6 Xposition Yposition Zposition Zrotation Xrotation Yrotation
                  JOINT Bip01_L_Finger0
                  {
                    OFFSET 12.9992 0 0
                    CHANNELS 6 Xposition Yposition Zposition Zrotation Xrotation Yrotation
                    End Site
                    {
                      OFFSET 0 0 0
                    }
                  }
                }
              }
              JOINT BN__UpperArm_L_01
              {
                OFFSET 4.92586 2.56729 1.95639
                CHANNELS 6 Xposition Yposition Zposition Zrotation Xrotation Yrotation
                End Site
                {
                  OFFSET 0 0 0
                }
              }
            }
          }
          JOINT Bip01_R_Clavicle
          {
            OFFSET -1.90751 -3.34722 7.0168
            CHANNELS 6 Xposition Yposition Zposition Zrotation Xrotation Yrotation
            JOINT Bip01_R_UpperArm
            {
              OFFSET 15.6801 0 0
              CHANNELS 6 Xposition Yposition Zposition Zrotation Xrotation Yrotation
              JOINT Bip01_R_Forearm
              {
                OFFSET 15.3149 0 0
                CHANNELS 6 Xposition Yposition Zposition Zrotation Xrotation Yrotation
                JOINT Bip01_R_Hand
                {
                  OFFSET 16.1779 0 0
                  CHANNELS 6 Xposition Yposition Zposition Zrotation Xrotation Yrotation
                  JOINT Bip01_R_Finger0
                  {
                    OFFSET 12.9991 0 0
                    CHANNELS 6 Xposition Yposition Zposition Zrotation Xrotation Yrotation
                    End Site
                    {
                      OFFSET 0 0 0
                    }
                  }
                }
              }
              JOINT BN__UpperArm_R_01
              {
                OFFSET 4.92584 2.56728 -1.95638
                CHANNELS 6 Xposition Yposition Zposition Zrotation Xrotation Yrotation
                End Site
                {
                  OFFSET 0 0 0
                }
              }
            }
          }
        }
      }
      JOINT Bip01_L_Thigh
      {
        OFFSET -8.91231 -1.85462 5.82833
        CHANNELS 6 Xposition Yposition Zposition Zrotation Xrotation Yrotation
        JOINT Bip01_L_Calf
        {
          OFFSET 15.7566 0 0
          CHANNELS 6 Xposition Yposition Zposition Zrotation Xrotation Yrotation
          JOINT Bip01_L_HorseLink
          {
            OFFSET 16.2363 0 0
            CHANNELS 6 Xposition Yposition Zposition Zrotation Xrotation Yrotation
            JOINT Bip01_L_Foot
            {
              OFFSET 13.9816 0 0
              CHANNELS 6 Xposition Yposition Zposition Zrotation Xrotation Yrotation
              JOINT Bip01_L_Toe0
              {
                OFFSET 7.68594 5.03696 0
                CHANNELS 6 Xposition Yposition Zposition Zrotation Xrotation Yrotation
                End Site
                {
                  OFFSET 0 0 0
                }
              }
            }
          }
        }
      }
      JOINT Bip01_R_Thigh
      {
        OFFSET -6.80264 -1.57702 -6.62463
        CHANNELS 6 Xposition Yposition Zposition Zrotation Xrotation Yrotation
        JOINT Bip01_R_Calf
        {
          OFFSET 15.7566 0 0
          CHANNELS 6 Xposition Yposition Zposition Zrotation Xrotation Yrotation
          JOINT Bip01_R_HorseLink
          {
            OFFSET 16.2363 0 0
            CHANNELS 6 Xposition Yposition Zposition Zrotation Xrotation Yrotation
            JOINT Bip01_R_Foot
            {
              OFFSET 13.9816 0 0
              CHANNELS 6 Xposition Yposition Zposition Zrotation Xrotation Yrotation
              JOINT Bip01_R_Toe0
              {
                OFFSET 7.68597 5.03696 0
                CHANNELS 6 Xposition Yposition Zposition Zrotation Xrotation Yrotation
                End Site
                {
                  OFFSET 0 0 0
                }
              }
            }
          }
        }
      }
    }
    JOINT BN_Tail_01
    {
      OFFSET -7.9584 -2.82211 0
      CHANNELS 6 Xposition Yposition Zposition Zrotation Xrotation Yrotation
      JOINT BN_Tail_02
      {
        OFFSET 10.9082 0 0.00113176
        CHANNELS 6 Xposition Yposition Zposition Zrotation Xrotation Yrotation
        End Site
        {
          OFFSET 0 0 0
        }
      }
    }
  }
}
MOTION
Frames:	4
Frame Time:	0.0333333
-24.1804 43.8403 -6.4272e-006 -88.9338 -83.373 11.6236 0 -2.38419e-007 0 -89.9441 -3.50835e-015 -90 7.98489 1.06468 -3.02791e-005 10.9304 0.196692 0.550312 14.2466 -0.00816727 -0.000177145 -15.2819 1.18266 -11.8147 16.1423 -3.99013 0.000285327 -18.9305 -2.14534 -1.70169 9.69215 -0.00480271 -7.15255e-007 -13.7466 -3.24677 6.87258 6.2355 -1.90735e-006 -4.76837e-007 -22.1388 0.552362 -2.42223 4.58056 2.14337 -1.19209e-007 -109.928 -0.0476074 -179.967 -3.79558 -1.35248 -6.91895 -161.44 -19.0152 -90.9688 15.6802 -3.8147e-006 -1.90735e-006 -34.8093 -29.2667 62.8031 15.3149 0 -4.76837e-007 -68.6673 -1.00927e-006 1.97639e-005 16.1779 -2.1458e-006 -1.43051e-006 153.57 -87.8582 155.7 12.9992 1.43055e-006 -2.86098e-006 -0.502697 1.56006 -0.83955 6.09988 3.12148 -5.23854 -126.021 -79.3773 -131.367 -3.38156 -1.87508 7.0106 -160.835 17.5437 89.0394 15.6802 -7.10543e-015 2.38418e-006 21.4387 82.1968 -135.971 15.3149 -1.66894e-006 1.43051e-006 -46.9585 -7.41414e-006 8.86311e-006 16.178 1.90737e-006 -4.76837e-007 5.30334 84.945 -14.0221 12.9992 1.43054e-006 -5.722e-006 -2.61682 -0.773375 18.491 5.03887 3.89274 -1.75286 53.9721 -79.3762 48.6257 -8.10224 0.490808 6.2375 -139.707 12.2166 -169.765 15.7566 -1.90735e-006 -1.77635e-015 -61.7217 -4.9716e-006 1.31208e-006 16.2363 -3.55271e-015 -9.53673e-007 85.8421 1.38238e-006 3.84237e-006 13.9816 3.33786e-006 -9.53672e-007 -48.7254 -4.28833 -2.15005 7.6859 5.03697 -9.53672e-007 89.9963 -1.8058e-006 -6.02057e-007 -7.98076 0.447277 -6.39531 -110.862 -0.890024 171.548 15.7566 -7.62939e-006 -9.53673e-007 -63.309 -2.23195e-006 1.86214e-006 16.2363 7.62939e-006 0 72.303 7.04888e-007 2.6567e-006 13.9816 -3.8147e-006 1.90735e-006 -6.74749 7.8513 9.10289 7.68596 5.03695 1.90734e-006 89.9962 -1.7246e-005 -1.22636e-006 -7.95842 -2.82211 2.38418e-007 -63.9017 2.4958 -178.308 10.9082 -7.62939e-006 0.0017631 29.9375 -0.00841963 26.3596 
-25.5311 43.368 0.153042 -92.3534 -84.495 8.42927 4.01861e-008 -7.16929e-008 -1.27094e-006 -90.1042 -0.244124 -91.2184 7.98709 1.03091 -0.168405 9.58556 0.844784 0.918401 14.247 -0.00820551 -0.000203279 -13.6345 0.534063 -10.4242 16.1425 -3.99013 0.000279053 -18.133 -2.70103 -0.349897 9.69209 -0.0048421 -1.73557e-006 -13.7726 -3.37762 7.1905 6.2355 -2.74265e-006 -2.0981e-007 -23.0874 1.62158 -1.93 4.58057 2.14337 -1.07014e-007 -109.584 0.0282745 -179.996 -3.65347 -1.23419 -7.01643 -161.748 -19.9259 -89.4451 15.6801 1.0172e-006 -2.86567e-006 -35.3347 -29.4554 63.6869 15.3149 -3.73452e-006 -1.78533e-006 -70.7456 -9.62648e-006 -2.61528e-006 16.1779 -7.49253e-008 5.65496e-006 -108.063 -88.4733 -103.417 12.9992 -3.51951e-006 -8.4516e-007 -0.495252 1.57612 -4.95885 6.09987 3.12148 -5.23853 -126.021 -79.3773 -131.367 -3.56833 -1.89182 6.91268 -162.046 13.9036 89.4912 15.6801 1.0798e-005 -1.50854e-006 -11.5187 43.7361 -92.9242 15.3149 -1.2295e-006 1.47276e-006 -87.415 4.50118e-005 5.23226e-006 16.1779 2.23203e-006 1.69113e-006 154.764 83.7539 -147.183 12.9992 1.79081e-006 -2.5154e-006 -3.79228 -0.703816 24.9257 5.03912 3.89255 -1.75125 53.9723 -79.3762 48.6258 -8.15031 0.409588 6.34975 -136.336 11.7752 -171.065 15.7566 -3.38943e-006 1.17708e-006 -54.9062 1.58699e-005 -6.75611e-006 16.2363 -1.24575e-006 -1.77778e-006 87.7339 8.22461e-006 -6.00309e-006 13.9816 4.35411e-007 2.37162e-006 -53.3267 -3.39963 -3.15381 7.6859 5.03697 5.07172e-007 93.8512 -0.240575 0.0635019 -7.94721 0.222962 -6.28054 -111.269 -1.14836 172.051 15.7566 -6.07834e-006 -2.81263e-006 -66.0643 -1.40419e-006 1.17741e-005 16.2363 6.39255e-006 1.76974e-006 76.8299 3.81767e-006 -9.31031e-006 13.9816 -3.12001e-006 4.57512e-007 -9.73542 9.41671 8.64583 7.68595 5.03695 -9.88904e-009 89.8791 0.147367 -0.0851736 -7.95841 -2.82211 2.14592e-007 -62.3635 0.898383 -177.722 10.9082 -6.35331e-006 0.00176305 29.9191 0.00966846 20.3453 
-28.7033 42.382 0.514881 -108.374 -86.9093 -7.20278 8.8386e-007 -7.80132e-008 2.52184e-006 -90.4079 -0.736924 -94.014 7.97773 0.962068 -0.552803 6.31834 2.14793 1.7969 14.2473 -0.00824116 -0.000230353 -9.59715 -0.773065 -7.07126 16.1426 -3.99013 0.000274468 -16.8071 -3.84276 2.74226 9.69204 -0.00487009 -1.13254e-006 -13.7195 -3.59127 7.73465 6.23549 2.0908e-007 -3.79081e-007 -24.52 4.00862 -0.795284 4.58056 2.14337 -2.45857e-007 -109.241 0.103897 179.975 -3.30342 -1.01011 -7.2224 -161.764 -21.4928 -85.9345 15.6801 -1.13221e-005 -6.46572e-007 -36.7447 -31.2862 65.6823 15.3149 5.66772e-006 1.39575e-007 -74.0987 -9.72423e-006 -1.18279e-007 16.1779 -3.7131e-006 2.78629e-006 -67.8611 -82.8748 -57.8803 12.9992 -2.9749e-006 -4.60339e-006 -0.478442 1.58175 -14.0249 6.09988 3.12148 -5.23854 -126.021 -79.3773 -131.367 -3.96977 -1.9449 6.67497 -163.7 7.12533 91.1015 15.6801 2.3207e-006 -1.79078e-006 -2.23834 19.9439 -80.5806 15.3149 1.42266e-006 2.46364e-006 -107.415 2.17161e-005 -1.91006e-005 16.1779 -9.03723e-007 1.67961e-007 -179.767 67.4657 -150.088 12.9992 1.97493e-006 -5.097e-006 -5.72333 -0.800707 33.0149 5.03937 3.89236 -1.74965 53.9726 -79.3763 48.6261 -8.24692 0.180032 6.61195 -135.386 9.9605 -172.891 15.7566 3.34169e-007 -1.82979e-007 -46.5019 4.57689e-007 6.40854e-006 16.2363 -5.44394e-007 -2.42563e-006 86.0932 7.42769e-006 -9.99724e-006 13.9816 3.73062e-006 6.60157e-007 -59.41 -1.12451 -4.76148 7.68589 5.03697 -2.98122e-007 100.332 -0.206293 0.124051 -7.85015 -0.293748 -6.00621 -112.032 -1.86315 172.982 15.7566 -1.92173e-006 -2.19676e-006 -71.2322 -5.67257e-006 1.27427e-005 16.2363 1.02945e-006 4.14719e-007 85.9383 2.03623e-006 1.75507e-005 13.9816 -4.79063e-007 2.68254e-006 -16.4085 13 7.7435 7.68595 5.03695 8.52669e-007 89.7626 0.294441 -0.169815 -7.95841 -2.82211 3.33119e-007 -60.2872 -3.10121 -176.041 10.9082 -1.04502e-005 0.00176128 29.8759 0.0328872 5.5746 
-32.9506 41.217 1.00802 -175.411 -88.2194 -73.6244 -1.04104e-006 -2.11836e-007 2.58207e-006 -90.9273 -1.13204 -97.4835 7.93663 0.906689 -1.02594 2.29387 3.33976 2.89666 14.2476 -0.00828239 -0.000256536 -4.56619 -1.90145 -3.05179 16.1428 -3.99013 0.000269904 -15.2916 -5.01853 6.49158 9.69198 -0.00489721 1.68098e-007 -13.655 -3.73341 8.10725 6.2355 -6.67852e-007 7.37639e-008 -26.1223 6.73863 0.341219 4.58056 2.14337 4.72935e-007 -108.92 0.176086 179.945 -2.8604 -0.7685 -7.43766 -161.505 -22.5333 -81.7125 15.6801 -2.05518e-006 -2.68348e-006 -38.8017 -35.1945 67.3319 15.3149 -2.89793e-006 1.91206e-007 -78.7154 -1.46459e-005 -4.35067e-006 16.1779 2.01453e-006 2.80642e-006 -61.5086 -76.7409 -48.264 12.9992 -9.83322e-007 -2.74364e-007 -0.462639 1.57515 -24.5518 6.09988 3.12148 -5.23854 -126.021 -79.3772 -131.367 -4.43129 -1.98883 6.36442 -165.024 2.60499 94.835 15.6801 2.46859e-006 -8.20689e-007 5.22168 11.3106 -75.8225 15.3149 3.19899e-006 3.87163e-006 -100.211 9.90714e-006 -1.56178e-006 16.1779 -1.71797e-006 -1.67168e-008 172.409 63.2118 -148.793 12.9992 1.03253e-006 -1.16207e-006 -7.15898 -0.848658 24.4524 5.03962 3.89219 -1.74805 53.9726 -79.3763 48.6261 -8.3289 -0.15878 6.95221 -145.124 6.80943 -173.361 15.7566 -2.39009e-006 2.29888e-006 -65 1.84267e-005 1.15012e-007 16.2363 3.28451e-006 7.08809e-007 89.6641 7.90188e-006 -1.08674e-005 13.9816 -8.53829e-007 1.22726e-006 -59.5839 2.09325 -6.08783 7.6859 5.03697 1.30825e-007 106.073 0.737459 0.198328 -7.69079 -0.895124 -5.64349 -113.664 -2.60444 173.65 15.7566 -3.37084e-006 -9.20282e-007 -76.0591 -1.30388e-005 -1.43577e-005 16.2363 2.25419e-006 1.64633e-006 95.8108 9.89988e-006 1.81815e-006 13.9816 -5.25986e-006 2.07139e-006 -25.2447 17.5466 7.18479 7.68597 5.03696 2.03898e-006 89.6421 0.437404 -0.250708 -7.95842 -2.82211 7.85179e-007 -57.4737 -8.22297 -173.392 10.9082 -5.73705e-006 0.00176323 29.823 0.0615395 -12.8109 
